{"title":"Michael Jackson's This Is It.2009.TS.AAC.H264-LTT","uid":5145805,"size":1218885661,"categoryP":"video","categoryS":"movies","magnet":"?xt=urn:btih:6d1a26a6680934afee738ad4da55bba27c5fd264&amp;dn=Michael+Jackson%5C%27s+This+Is+It.2009.TS.AAC.H264-LTT&amp;tr=udp%3A%2F%2Ftracker.openbittorrent.com%3A80&amp;tr=udp%3A%2F%2Fopen.demonii.com%3A1337&amp;tr=udp%3A%2F%2Ftracker.coppersurfer.tk%3A6969&amp;tr=udp%3A%2F%2Fexodus.desync.com%3A6969","seeders":0,"leechers":1,"uploader":"Ltt_Fr1","files":3,"time":1257255197,"description":"Michael Jackson's This Is It.2009.TS.AAC.H264-LTT.mp4\n*****************************************************\n\n&gt; TiTLE......[ This Is It\n&gt; YEAR.......[ 2009\n&gt; GENRE......[ Documentary | Music\n&gt; RUNTiME....[ 1:44:00\n&gt; iMDB RATE..[ User Rating: 7.6/10 (4,047 votes)\n&gt; iMDB URL...[ http://www.imdb.com/title/tt1477715/\n\n&gt; AUDiO......[ MPEG-4 AAC LC VBR 128 kbit/s 48000Hz 2 chnls\n&gt; LANGUAGE...[ ENGLISH\n&gt; SUBS.......[ Hardcoded Spanish\n&gt; ViDEO......[ 1421 kbps H.264/MPEG-4 AVC 25.000 Fps\n&gt; RESOLUTiON.[ 704 x 352\n&gt; DAR........[ 2.000 (2:1)\n&gt; SiZE.......[ 1.12 GB (1,152 MB / 1,180,609 KB)\n&gt; SOURCE.....[ Camera SPA\n************************************************\n\nVideo:\nDuration                         : 1h 44mn\nBit rate mode                    : Variable\nBit rate                         : 1 418 Kbps\nMaximum bit rate                 : 5 476 Kbps\nWidth                            : 704 pixels\nHeight                           : 352 pixels\nDisplay aspect ratio             : 2.000\nFrame rate mode                  : Constant\nFrame rate                       : 25.000 fps\nResolution                       : 24 bits\nColorimetry                      : 4:2:0\nBits/(Pixel*Frame)               : 0.229\nStream size                      : 1.03 GiB (91%)\n\nAudio:\nDuration                         : 1h 43mn\nBit rate mode                    : Variable\nBit rate                         : 128 Kbps\nMaximum bit rate                 : 213 Kbps\nChannel(s)                       : 2 channels\nChannel positions                : L R\nSampling rate                    : 48.0 KHz\nResolution                       : 16 bits\nStream size                      : 95.2 MiB (8%)\nEncoded date                     : UTC 2009-11-01 19:35:57\n**********************************************************\n\nincluded the sample.\n\nEnjoy.\nLTT\n","torrent":{"xt":"urn:btih:6d1a26a6680934afee738ad4da55bba27c5fd264","amp;dn":"Michael+Jackson%5C%27s+This+Is+It.2009.TS.AAC.H264-LTT","amp;tr":["udp%3A%2F%2Ftracker.openbittorrent.com%3A80","udp%3A%2F%2Fopen.demonii.com%3A1337","udp%3A%2F%2Ftracker.coppersurfer.tk%3A6969","udp%3A%2F%2Fexodus.desync.com%3A6969"],"infoHash":"6d1a26a6680934afee738ad4da55bba27c5fd264","infoHashBuffer":{"type":"Buffer","data":[109,26,38,166,104,9,52,175,238,115,138,212,218,85,187,162,124,95,210,100]},"announce":[],"urlList":[]}}